HIERARCHY
ROOT Root
{
  OFFSET 0.0 0.0 0.0
  CHANNELS 6 Xposition Yposition Zposition Zrotation Yrotation Xrotation
  JOINT Hips
  {
    OFFSET 0.0 100.0 0.0
    CHANNELS 6 Xposition Yposition Zposition Zrotation Yrotation Xrotation
    JOINT Spine1
    {
      OFFSET 5.003913 -0.037094 -0.013727
      CHANNELS 3 Zrotation Yrotation Xrotation
      JOINT Spine2
      {
        OFFSET 7.125363 -1e-06 0.0
        CHANNELS 3 Zrotation Yrotation Xrotation
        JOINT Chest
        {
          OFFSET 7.594027 1e-06 0.0
          CHANNELS 3 Zrotation Yrotation Xrotation
          JOINT Neck1
          {
            OFFSET 26.313086 -0.460272 -0.181672
            CHANNELS 3 Zrotation Yrotation Xrotation
            JOINT Neck2
            {
              OFFSET 8.045911 0.0 0.0
              CHANNELS 3 Zrotation Yrotation Xrotation
              JOINT Head
              {
                OFFSET 6.432774 0.0 0.0
                CHANNELS 3 Zrotation Yrotation Xrotation
                JOINT HeadEnd
                {
                  OFFSET 16.169773 0.06451 0.00362
                  CHANNELS 3 Zrotation Yrotation Xrotation
                }
                JOINT Jaw
                {
                  OFFSET 0.108741 3.12938 0.002639
                  CHANNELS 3 Zrotation Yrotation Xrotation
                }
                JOINT LeftEye
                {
                  OFFSET 4.45173 8.166359 3.206392
                  CHANNELS 3 Zrotation Yrotation Xrotation
                }
                JOINT RightEye
                {
                  OFFSET 4.436895 8.135758 -3.222429
                  CHANNELS 3 Zrotation Yrotation Xrotation
                }
              }
            }
          }
          JOINT LeftShoulder
          {
            OFFSET 23.218927 5.195579 1.621656
            CHANNELS 3 Zrotation Yrotation Xrotation
            JOINT LeftArm
            {
              OFFSET 15.902118 2e-06 -2e-06
              CHANNELS 3 Zrotation Yrotation Xrotation
              JOINT LeftForeArm
              {
                OFFSET 28.739307 0.0 -1e-06
                CHANNELS 3 Zrotation Yrotation Xrotation
                JOINT LeftHand
                {
                  OFFSET 27.093981 -4e-06 0.0
                  CHANNELS 3 Zrotation Yrotation Xrotation
                  JOINT LeftHandThumb1
                  {
                    OFFSET 2.276781 3.380274 0.83384
                    CHANNELS 3 Zrotation Yrotation Xrotation
                    JOINT LeftHandThumb2
                    {
                      OFFSET 4.705309 -1e-06 -1e-06
                      CHANNELS 3 Zrotation Yrotation Xrotation
                      JOINT LeftHandThumb3
                      {
                        OFFSET 2.798515 0.0 3e-06
                        CHANNELS 3 Zrotation Yrotation Xrotation
                        JOINT LeftHandThumbEnd
                        {
                          OFFSET 3.180793 4e-06 -4e-06
                          CHANNELS 3 Zrotation Yrotation Xrotation
                        }
                      }
                    }
                  }
                  JOINT LeftHandIndex1
                  {
                    OFFSET 3.247786 2.352677 0.137192
                    CHANNELS 3 Zrotation Yrotation Xrotation
                    JOINT LeftHandIndex2
                    {
                      OFFSET 6.367095 1e-06 0.0
                      CHANNELS 3 Zrotation Yrotation Xrotation
                      JOINT LeftHandIndex3
                      {
                        OFFSET 3.662364 0.0 0.0
                        CHANNELS 3 Zrotation Yrotation Xrotation
                        JOINT LeftHandIndex4
                        {
                          OFFSET 2.329242 4e-06 -4e-06
                          CHANNELS 3 Zrotation Yrotation Xrotation
                          JOINT LeftHandIndexEnd
                          {
                            OFFSET 2.767823 1e-06 0.0
                            CHANNELS 3 Zrotation Yrotation Xrotation
                          }
                        }
                      }
                    }
                  }
                  JOINT LeftHandMiddle1
                  {
                    OFFSET 3.163612 0.945023 -0.406112
                    CHANNELS 3 Zrotation Yrotation Xrotation
                    JOINT LeftHandMiddle2
                    {
                      OFFSET 6.276789 3e-06 0.0
                      CHANNELS 3 Zrotation Yrotation Xrotation
                      JOINT LeftHandMiddle3
                      {
                        OFFSET 4.35652 -1e-06 4e-06
                        CHANNELS 3 Zrotation Yrotation Xrotation
                        JOINT LeftHandMiddle4
                        {
                          OFFSET 2.996877 0.0 8e-06
                          CHANNELS 3 Zrotation Yrotation Xrotation
                          JOINT LeftHandMiddleEnd
                          {
                            OFFSET 2.323256 3e-06 -4e-06
                            CHANNELS 3 Zrotation Yrotation Xrotation
                          }
                        }
                      }
                    }
                  }
                  JOINT LeftHandRing1
                  {
                    OFFSET 2.882606 -0.309162 0.107445
                    CHANNELS 3 Zrotation Yrotation Xrotation
                    JOINT LeftHandRing2
                    {
                      OFFSET 6.033198 0.0 4e-06
                      CHANNELS 3 Zrotation Yrotation Xrotation
                      JOINT LeftHandRing3
                      {
                        OFFSET 4.350578 3e-06 0.0
                        CHANNELS 3 Zrotation Yrotation Xrotation
                        JOINT LeftHandRing4
                        {
                          OFFSET 2.651321 2e-06 -7e-06
                          CHANNELS 3 Zrotation Yrotation Xrotation
                          JOINT LeftHandRingEnd
                          {
                            OFFSET 1.937663 1e-06 -4e-06
                            CHANNELS 3 Zrotation Yrotation Xrotation
                          }
                        }
                      }
                    }
                  }
                  JOINT LeftHandPinky1
                  {
                    OFFSET 2.865315 -1.525436 0.575687
                    CHANNELS 3 Zrotation Yrotation Xrotation
                    JOINT LeftHandPinky2
                    {
                      OFFSET 5.54936 1e-06 -8e-06
                      CHANNELS 3 Zrotation Yrotation Xrotation
                      JOINT LeftHandPinky3
                      {
                        OFFSET 3.070974 0.0 -4e-06
                        CHANNELS 3 Zrotation Yrotation Xrotation
                        JOINT LeftHandPinky4
                        {
                          OFFSET 1.549672 1e-06 0.0
                          CHANNELS 3 Zrotation Yrotation Xrotation
                          JOINT LeftHandPinkyEnd
                          {
                            OFFSET 1.952123 0.0 0.0
                            CHANNELS 3 Zrotation Yrotation Xrotation
                          }
                        }
                      }
                    }
                  }
                }
              }
            }
          }
          JOINT RightShoulder
          {
            OFFSET 23.161716 5.296122 -1.380114
            CHANNELS 3 Zrotation Yrotation Xrotation
            JOINT RightArm
            {
              OFFSET -16.027195 -2e-06 1.1e-05
              CHANNELS 3 Zrotation Yrotation Xrotation
              JOINT RightForeArm
              {
                OFFSET -28.736639 4e-06 2e-06
                CHANNELS 3 Zrotation Yrotation Xrotation
                JOINT RightHand
                {
                  OFFSET -27.133619 6e-06 0.0
                  CHANNELS 3 Zrotation Yrotation Xrotation
                  JOINT RightHandThumb1
                  {
                    OFFSET -2.274328 -3.351035 -0.83067
                    CHANNELS 3 Zrotation Yrotation Xrotation
                    JOINT RightHandThumb2
                    {
                      OFFSET -4.703594 -3e-06 2e-06
                      CHANNELS 3 Zrotation Yrotation Xrotation
                      JOINT RightHandThumb3
                      {
                        OFFSET -2.794935 -4e-06 -3e-06
                        CHANNELS 3 Zrotation Yrotation Xrotation
                        JOINT RightHandThumbEnd
                        {
                          OFFSET -3.183852 4e-06 1e-06
                          CHANNELS 3 Zrotation Yrotation Xrotation
                        }
                      }
                    }
                  }
                  JOINT RightHandIndex1
                  {
                    OFFSET -3.253496 -2.33755 -0.127667
                    CHANNELS 3 Zrotation Yrotation Xrotation
                    JOINT RightHandIndex2
                    {
                      OFFSET -6.344434 0.0 0.0
                      CHANNELS 3 Zrotation Yrotation Xrotation
                      JOINT RightHandIndex3
                      {
                        OFFSET -3.654871 0.0 -8e-06
                        CHANNELS 3 Zrotation Yrotation Xrotation
                        JOINT RightHandIndex4
                        {
                          OFFSET -2.327586 -1e-06 0.0
                          CHANNELS 3 Zrotation Yrotation Xrotation
                          JOINT RightHandIndexEnd
                          {
                            OFFSET -2.770001 3e-06 8e-06
                            CHANNELS 3 Zrotation Yrotation Xrotation
                          }
                        }
                      }
                    }
                  }
                  JOINT RightHandMiddle1
                  {
                    OFFSET -3.168223 -0.944764 0.411762
                    CHANNELS 3 Zrotation Yrotation Xrotation
                    JOINT RightHandMiddle2
                    {
                      OFFSET -6.266691 -1e-06 -4e-06
                      CHANNELS 3 Zrotation Yrotation Xrotation
                      JOINT RightHandMiddle3
                      {
                        OFFSET -4.348901 0.0 0.0
                        CHANNELS 3 Zrotation Yrotation Xrotation
                        JOINT RightHandMiddle4
                        {
                          OFFSET -3.00024 2e-06 -4e-06
                          CHANNELS 3 Zrotation Yrotation Xrotation
                          JOINT RightHandMiddleEnd
                          {
                            OFFSET -2.321477 -4e-06 -4e-06
                            CHANNELS 3 Zrotation Yrotation Xrotation
                          }
                        }
                      }
                    }
                  }
                  JOINT RightHandRing1
                  {
                    OFFSET -2.885654 0.293261 -0.119232
                    CHANNELS 3 Zrotation Yrotation Xrotation
                    JOINT RightHandRing2
                    {
                      OFFSET -6.032835 -1e-06 -4e-06
                      CHANNELS 3 Zrotation Yrotation Xrotation
                      JOINT RightHandRing3
                      {
                        OFFSET -4.33881 0.0 -4e-06
                        CHANNELS 3 Zrotation Yrotation Xrotation
                        JOINT RightHandRing4
                        {
                          OFFSET -2.654903 -4e-06 -4e-06
                          CHANNELS 3 Zrotation Yrotation Xrotation
                          JOINT RightHandRingEnd
                          {
                            OFFSET -1.935122 0.0 4e-06
                            CHANNELS 3 Zrotation Yrotation Xrotation
                          }
                        }
                      }
                    }
                  }
                  JOINT RightHandPinky1
                  {
                    OFFSET -2.866241 1.503904 -0.60527
                    CHANNELS 3 Zrotation Yrotation Xrotation
                    JOINT RightHandPinky2
                    {
                      OFFSET -5.553177 -2e-06 0.0
                      CHANNELS 3 Zrotation Yrotation Xrotation
                      JOINT RightHandPinky3
                      {
                        OFFSET -3.062664 -1e-06 -4e-06
                        CHANNELS 3 Zrotation Yrotation Xrotation
                        JOINT RightHandPinky4
                        {
                          OFFSET -1.546529 2e-06 4e-06
                          CHANNELS 3 Zrotation Yrotation Xrotation
                          JOINT RightHandPinkyEnd
                          {
                            OFFSET -1.952341 0.0 -4e-06
                            CHANNELS 3 Zrotation Yrotation Xrotation
                          }
                        }
                      }
                    }
                  }
                }
              }
            }
          }
        }
      }
    }
    JOINT LeftLeg
    {
      OFFSET -8.443107 2.567604 10.043214
      CHANNELS 3 Zrotation Yrotation Xrotation
      JOINT LeftShin
      {
        OFFSET 43.229198 1e-06 -1e-06
        CHANNELS 3 Zrotation Yrotation Xrotation
        JOINT LeftFoot
        {
          OFFSET 42.298611 1e-06 1e-06
          CHANNELS 3 Zrotation Yrotation Xrotation
          JOINT LeftToeBase
          {
            OFFSET 14.165858 1e-06 0.0
            CHANNELS 3 Zrotation Yrotation Xrotation
            JOINT LeftToeEnd
            {
              OFFSET 6.7141 -0.234461 0.0
              CHANNELS 3 Zrotation Yrotation Xrotation
            }
          }
        }
      }
    }
    JOINT RightLeg
    {
      OFFSET -8.303923 2.592729 -10.047278
      CHANNELS 3 Zrotation Yrotation Xrotation
      JOINT RightShin
      {
        OFFSET -43.369682 0.0 1e-06
        CHANNELS 3 Zrotation Yrotation Xrotation
        JOINT RightFoot
        {
          OFFSET -42.260784 4e-06 2e-06
          CHANNELS 3 Zrotation Yrotation Xrotation
          JOINT RightToeBase
          {
            OFFSET -14.222245 -2e-06 -1e-06
            CHANNELS 3 Zrotation Yrotation Xrotation
            JOINT RightToeEnd
            {
              OFFSET -6.660062 0.232574 -2e-06
              CHANNELS 3 Zrotation Yrotation Xrotation
            }
          }
        }
      }
    }
  }
}
MOTION
Frames: 4
Frame Time: 0.03333333333333333
0.0 0.0 0.0 0.0 -0.0 0.0 -4.485725 49.044235 179.158401 90.017517 -43.893597 89.704063 17.276432 -1.838354 1.506569 -4.005526 -0.608336 2.847163 26.042385 -5.831975 -0.066777 28.271383 -2.691339 2.168886 -2.587925 -0.636532 -1.223885 -23.486465 -5.847007 -1.810804 6e-06 -0.0 0.0 -0.210735 0.00504 0.023107 0.059778 -0.004735 0.106872 0.07122 0.011009 -0.058574 24.823423 -85.029175 -15.157372 75.001877 -6.514791 -21.78554 17.811914 -0.924086 -0.050581 71.381897 70.007431 74.046227 17.636629 -26.322733 52.411198 -19.466656 -14.3956 29.410389 -0.0 -8.774822 -1e-06 15.689385 -18.408419 6.256659 -0.609775 -1.795653 -3.889328 -4.807088 -11.046811 -2.937851 4e-06 -20.976017 1e-06 -5.019971 -25.03356 -4.031881 7e-06 1e-06 1e-06 -10.634533 -5.68697 -3.565587 10.573272 -17.922955 -3.113901 2e-06 -13.821209 1e-06 -0.501777 -31.181505 -4.027016 -11.602333 -59.77203 7.856526 -13.982716 -7.150198 -2.875041 13.77273 -8.401491 -3.218242 0.347732 -34.211544 0.771655 -0.96303 -17.733368 2.62102 0.0 0.0 -0.0 -17.34642 -20.095217 -4.201781 21.757557 -1.638376 3.866427 1e-06 -6.338826 1e-06 -1.69759 -22.591745 -6.194005 -0.0 -5e-06 -1e-06 -161.341614 -65.425034 -12.053679 65.569855 2.515819 -49.689426 14.291873 -1.042299 -0.283134 29.414368 50.94315 32.818874 22.182114 -20.375895 49.933319 -16.701811 -16.743528 28.476526 -2e-06 -12.690601 -1e-06 16.366613 -17.529106 2.424902 -0.105919 -1.513856 -4.275882 -5.039041 -5.612871 -2.953557 4e-06 -11.020523 -2e-06 -6.111298 -15.895332 -3.840471 -0.0 -1e-06 -1e-06 -10.283369 -5.680286 -4.341839 11.028292 -11.302404 -2.372633 -1.38427 -14.238576 -6.32012 -0.62544 -26.924187 -3.8276 -3.808966 -50.571991 -4.112472 -13.708525 -7.363474 -3.720939 18.141148 -14.052735 -3.242673 5e-06 -18.78727 -1e-06 -0.429712 -8.45604 2.555504 -0.0 1e-06 -0.0 -15.923536 -20.094482 -5.473584 30.41921 -7.190826 1.735926 1e-06 -8.162921 -0.0 -1.861906 -22.861467 -6.16794 -1e-06 -3e-06 -1e-06 106.594696 -5.685025 11.053957 126.710175 0.761685 0.538574 -33.374054 16.915909 5.592492 -3.335003 1.230419 2.412045 -1.000003 0.0 0.0 -26.911108 3.956367 6.487076 83.253563 0.658489 -0.622113 -34.277763 20.554188 -1.957731 -3.19323 0.333347 1.5598 -1.000001 1e-06 -0.0 
0.0 0.0 0.0 0.0 -0.0 0.0 -3.949816 48.3871 181.73111 90.168411 -43.790062 87.761391 16.959084 -2.048813 1.612599 -4.213092 -0.59615 3.092089 25.825813 -6.070423 0.283431 28.648714 -3.203757 1.956682 -2.55505 -0.576752 -0.897114 -23.82926 -5.925206 -1.180995 6e-06 0.0 -0.0 -0.210427 -0.029237 0.02559 0.054136 -0.056652 0.126449 0.087927 -0.008678 -0.074177 28.382099 -86.408875 -18.223473 73.663376 -9.085333 -21.201952 19.020048 -0.816997 -0.09441 74.570671 69.885994 77.733192 17.636641 -26.322729 52.411182 -19.466665 -14.395598 29.410385 -0.0 -8.774822 -3e-06 15.800299 -18.326714 6.204486 -0.609776 -1.795654 -3.889328 -4.80709 -11.046808 -2.93785 4e-06 -20.976019 0.0 -5.019969 -25.033558 -4.031884 6e-06 -0.0 2e-06 -10.634536 -5.686971 -3.565588 10.573274 -17.922951 -3.113899 3e-06 -13.821206 1e-06 -0.501777 -31.181501 -4.027016 -11.429079 -59.747204 7.594449 -13.982716 -7.150198 -2.875043 13.772731 -8.401493 -3.21824 0.347734 -34.211555 0.771654 -0.963028 -17.73337 2.62102 -0.0 0.0 -0.0 -17.346422 -20.095221 -4.201782 21.757561 -1.638375 3.866431 2e-06 -6.338825 1e-06 -1.69759 -22.591747 -6.194007 -1e-06 -6e-06 -2e-06 -162.879288 -64.9039 -10.670924 68.28347 0.936196 -49.389664 14.319762 -0.770057 -0.243313 29.751451 52.240524 33.365692 22.182121 -20.375898 49.933327 -16.701813 -16.743528 28.476532 -3e-06 -12.690603 -1e-06 16.501133 -17.62958 2.458269 -0.10592 -1.513858 -4.275881 -5.039041 -5.612871 -2.953558 4e-06 -11.020523 -2e-06 -6.111299 -15.895332 -3.840472 0.0 -1e-06 0.0 -10.283372 -5.680288 -4.341839 11.028296 -11.302406 -2.372633 -1.38427 -14.238579 -6.320122 -0.625439 -26.924192 -3.827601 -3.937236 -50.849449 -3.934896 -13.708527 -7.363478 -3.720939 18.14115 -14.052739 -3.242673 5e-06 -18.787271 -2e-06 -0.429713 -8.456044 2.555504 -0.0 1e-06 -0.0 -15.923536 -20.094484 -5.473587 30.419218 -7.190825 1.735929 2e-06 -8.162922 0.0 -1.861903 -22.861469 -6.167942 0.0 -3e-06 -1e-06 106.263069 -5.632298 10.564708 127.059937 0.942878 0.651909 -32.975212 18.401489 6.425971 -3.586411 1.23471 2.306116 -1.000003 0.0 0.0 -23.577459 3.482127 7.397985 79.637062 0.232567 -0.617254 -33.453335 20.43461 -1.877753 -2.713621 0.344904 1.56212 -1.000004 -0.0 0.0 
0.0 0.0 0.0 0.0 -0.0 0.0 -3.472056 47.82362 184.3983 90.554886 -44.180969 86.532486 16.516808 -2.146305 1.618737 -4.476568 -0.63045 3.12762 25.389442 -6.097492 0.284511 28.78475 -3.25156 1.817913 -2.540207 -0.536533 -0.759317 -24.024872 -5.983126 -0.737157 6e-06 1e-06 -0.0 -0.221201 -0.056456 0.021948 -0.019189 -0.089859 0.120812 0.032396 -0.031997 -0.076618 42.434799 -87.454399 -31.933016 71.989166 -12.094943 -20.957417 20.408884 -0.587212 -0.091344 77.035774 69.495628 80.397362 17.636625 -26.322725 52.411175 -19.466656 -14.395597 29.410378 -2e-06 -8.77482 -2e-06 15.977517 -18.285091 6.106637 -0.609776 -1.795654 -3.889327 -4.807088 -11.046807 -2.937848 5e-06 -20.976015 2e-06 -5.019969 -25.033548 -4.031878 6e-06 -0.0 0.0 -10.634532 -5.686969 -3.565586 10.573271 -17.922947 -3.113899 3e-06 -13.821206 1e-06 -0.501777 -31.181501 -4.027013 -11.345338 -59.733864 7.388526 -13.982712 -7.150194 -2.87504 13.77273 -8.401491 -3.21824 0.347734 -34.211552 0.771658 -0.963029 -17.73337 2.621021 -0.0 -1e-06 1e-06 -17.346415 -20.095211 -4.201778 21.757555 -1.638376 3.866426 2e-06 -6.338821 0.0 -1.697589 -22.591738 -6.194002 -0.0 -7e-06 -3e-06 -165.540375 -64.679581 -8.316233 71.578636 -1.02322 -49.297703 14.504307 -0.591257 -0.174791 31.355274 53.892742 35.223816 22.182121 -20.375891 49.933304 -16.701815 -16.743532 28.476526 -2e-06 -12.690603 -2e-06 16.47403 -17.676708 2.532258 -0.105919 -1.513857 -4.27588 -5.039041 -5.612871 -2.953557 4e-06 -11.020523 -2e-06 -6.111299 -15.89533 -3.84047 -0.0 -1e-06 -0.0 -10.283371 -5.680288 -4.341837 11.028295 -11.302405 -2.372632 -1.384269 -14.238578 -6.32012 -0.625439 -26.924187 -3.8276 -4.091352 -50.884464 -3.803073 -13.708526 -7.363476 -3.720938 18.141148 -14.052739 -3.242674 6e-06 -18.787271 -2e-06 -0.429713 -8.456043 2.555503 0.0 1e-06 -0.0 -15.923536 -20.094482 -5.473584 30.419214 -7.190826 1.735927 3e-06 -8.162925 -1e-06 -1.861902 -22.861467 -6.167941 -1e-06 -3e-06 -1e-06 106.949997 -5.184227 9.867569 127.008461 1.116381 0.68773 -33.949127 18.865377 6.275627 -3.584907 1.204235 2.29126 -1.000003 -0.0 1e-06 -20.623955 2.464098 7.612113 75.556274 -0.211319 -0.588271 -32.425213 20.454361 -1.739395 -2.243939 0.369053 1.567815 -1.000002 0.0 -0.0 
0.0 0.0 0.0 0.0 -0.0 0.0 -3.079283 47.402107 187.121964 91.439407 -45.047276 86.016335 15.941163 -2.185527 1.564669 -4.744825 -0.707239 2.905571 24.897535 -5.993249 -0.084859 28.552679 -2.82225 1.745322 -2.577693 -0.458101 -0.877191 -24.028793 -6.098259 -0.575692 6e-06 0.0 0.0 -0.225211 -0.054477 0.015821 -0.146738 -0.078308 0.087963 -0.091463 -0.038649 -0.056522 68.888847 -87.716293 -58.202599 70.351936 -15.367091 -21.627834 21.874458 -0.182997 -0.040329 78.067642 68.516731 80.742775 17.636625 -26.322731 52.41119 -19.466661 -14.395598 29.410389 -1e-06 -8.77482 -2e-06 16.115547 -18.238396 5.980259 -0.609776 -1.795654 -3.889328 -4.807088 -11.046808 -2.937851 4e-06 -20.976013 1e-06 -5.01997 -25.033552 -4.031882 7e-06 2e-06 2e-06 -10.634532 -5.68697 -3.565587 10.573277 -17.922947 -3.113902 3e-06 -13.821205 1e-06 -0.501777 -31.181505 -4.027014 -11.244162 -59.719242 7.210883 -13.982712 -7.150195 -2.875042 13.77273 -8.401492 -3.218243 0.347732 -34.211544 0.771657 -0.963028 -17.733366 2.62102 -0.0 0.0 -1e-06 -17.346416 -20.095213 -4.201781 21.757557 -1.638376 3.866426 1e-06 -6.338823 2e-06 -1.697589 -22.591738 -6.194005 -0.0 -6e-06 -1e-06 -168.842468 -64.723259 -5.385331 74.950859 -3.222875 -49.745522 14.675187 -0.520321 -0.101795 34.667473 55.571518 38.700001 22.182121 -20.375898 49.933323 -16.701813 -16.74353 28.476532 -3e-06 -12.690602 -1e-06 16.27944 -17.603809 2.645753 -0.105919 -1.513858 -4.275882 -5.039041 -5.612873 -2.953557 4e-06 -11.020525 -1e-06 -6.111297 -15.895334 -3.840471 0.0 0.0 -0.0 -10.283371 -5.680288 -4.341839 11.028296 -11.302406 -2.372632 -1.384268 -14.23858 -6.320121 -0.625439 -26.924192 -3.827601 -4.18759 -50.686596 -3.775661 -13.708526 -7.363476 -3.720939 18.141151 -14.05274 -3.242674 6e-06 -18.787273 -1e-06 -0.429713 -8.456043 2.555504 -0.0 -1e-06 -0.0 -15.923538 -20.094482 -5.473584 30.419218 -7.190828 1.735927 4e-06 -8.162925 -0.0 -1.861903 -22.861469 -6.167941 1e-06 -3e-06 -1e-06 108.361397 -4.015173 8.865984 126.174728 1.231698 0.681807 -35.81308 18.376013 4.872777 -3.803443 1.206203 2.285572 -1.0 -0.0 -0.0 -18.024693 0.863649 7.023631 70.996826 -0.638627 -0.540825 -31.193153 20.616707 -1.5884 -1.707553 0.373575 1.573147 -1.000003 -1e-06 0.0 
